<svg width="750" height="750" viewBox="0 0 750 750" fill="none" xmlns="http://www.w3.org/2000/svg">
<path d="M201.526 482.855C201.738 498.09 204.806 513.43 210.73 528.876C216.655 544.322 226.071 558.498 238.978 571.405C251.884 584.312 269.023 594.68 290.394 602.509C311.764 610.338 338.107 614.252 369.422 614.252C404.334 614.252 434.591 608.856 460.193 598.065C485.796 587.274 505.685 571.723 519.861 551.41C534.038 531.098 541.126 506.765 541.126 478.412C541.126 452.598 535.836 431.651 525.257 415.57C514.677 399.278 500.607 386.477 483.045 377.167C465.483 367.857 446.017 360.875 424.646 356.22L357.361 340.668C337.895 336.436 323.084 329.983 312.928 321.308C302.983 312.421 298.011 301.418 298.011 288.3C298.011 270.526 304.782 256.562 318.323 246.405C332.076 236.249 350.485 231.171 373.548 231.171C390.898 231.171 405.392 234.027 417.029 239.74C428.667 245.453 437.553 252.965 443.689 262.274C449.826 271.584 453.317 281.635 454.163 292.426H534.778C534.355 266.4 527.161 243.76 513.196 224.506C499.443 205.251 480.506 190.334 456.385 179.755C432.475 169.175 404.969 163.886 373.865 163.886C344.243 163.886 317.16 168.964 292.615 179.12C268.071 189.065 248.499 203.876 233.899 223.554C219.511 243.02 212.317 266.824 212.317 294.965C212.317 319.086 217.29 339.293 227.234 355.585C237.391 371.666 250.826 384.467 267.542 393.988C284.257 403.298 302.454 410.175 322.132 414.618L389.1 430.17C411.528 435.248 428.243 442.125 439.246 450.8C450.249 459.263 455.75 471.112 455.75 486.347C455.75 498.407 452.576 508.987 446.229 518.085C439.881 526.972 430.677 533.954 418.616 539.032C406.556 543.899 391.744 546.332 374.183 546.332C360.006 546.332 347.417 544.639 336.414 541.254C325.623 537.868 316.419 533.214 308.802 527.289C301.396 521.365 295.577 514.594 291.346 506.977C287.326 499.359 284.998 491.319 284.363 482.855H201.526Z" fill="#363636"/>
<rect y="690" width="750" height="60" fill="#00D1B2"/>
<rect x="352.192" width="397.808" height="60" fill="#00D1B2"/>
<path fill-rule="evenodd" clip-rule="evenodd" d="M5.95561e-06 560.673L-5.74629e-06 750H60L60 536.174L5.95561e-06 560.673Z" fill="#00D1B2"/>
<rect x="690" y="750" width="750" height="60" transform="rotate(-90 690 750)" fill="#00D1B2"/>
</svg>
